# xmcd
#
# Track frame offsets:
#	150
#	13579
#	26208
#	37310
#	48205
#	58209
#	75551
#	88508
#	101563
#	113143
#	131493
#	148283
#	162460
#	175982
#	193472
#	207794
#	222463
#	234407
#
# Disc length: 3346 seconds
#
# Revision: 0
# Processed by: cddbd v1.4PL0 Copyright (c) Steve Scherf et al.
# Submitted via: dBpowerAMP V4.0
#
DISCID=0d0d1012
DTITLE=charlie rich - the silver fox
DYEAR=1900
DGENRE=Ballad
TTITLE0=charlie rich-the most beautiful girl
TTITLE1=charlie rich-behind closed door's
TTITLE2=charlie rich-there won't be anymore
TTITLE3=charlie rich-lonely weekends
TTITLE4=charlie rich-mohair sam
TTITLE5=charlie rich-my elusive dream's
TTITLE6=charlie rich-c.c.rider
TTITLE7=charlie rich-take it on home
TTITLE8=charlie rich-pass on by
TTITLE9=charlie rich-i feel like going home
TTITLE10=charlie rich-big boss man
TTITLE11=charlie rich-break up
TTITLE12=charlie rich-good time charliegot
TTITLE13=charlie rich-life's little up's and down's
TTITLE14=charlie rich-moutain dew
TTITLE15=charlie rich-on my knee's
TTITLE16=charlie rich-rollin with the flow
TTITLE17=charlie rich-who will the next fool be
EXTD=
EXTT0=
EXTT1=
EXTT2=
EXTT3=
EXTT4=
EXTT5=
EXTT6=
EXTT7=
EXTT8=
EXTT9=
EXTT10=
EXTT11=
EXTT12=
EXTT13=
EXTT14=
EXTT15=
EXTT16=
EXTT17=
PLAYORDER=
